<?xml version="1.0" encoding="iso-8859-1"?>
<!-- Generator: Adobe Illustrator 19.0.0, SVG Export Plug-In . SVG Version: 6.00 Build 0)  -->
<svg xmlns="http://www.w3.org/2000/svg" xmlns:xlink="http://www.w3.org/1999/xlink" version="1.1" id="Capa_1" x="0px" y="0px" viewBox="0 0 512 512" style="enable-background:new 0 0 512 512;" xml:space="preserve" width="512px" height="512px">
<path style="fill:#FFA0A8;" d="M377.036,448.048l-10.784-58.416c-0.594-3.219-3.089-5.75-6.298-6.393l-84.811-16.962  c-2.623-0.524-5.334,0.297-7.226,2.188l-36.397,36.397c-61.462-27.004-94.805-60.393-124.307-124.46l36.32-36.32  c1.892-1.891,2.712-4.603,2.188-7.226l-16.962-84.811c-0.642-3.209-3.174-5.704-6.393-6.298L63.95,134.964  c-1.068-0.197-2.166-0.175-3.225,0.066c-14.689,3.337-28.091,10.74-38.761,21.41C3.509,174.896-3.517,202.009,1.649,234.849  c8.924,56.73,36.678,135.636,87.814,186.976l0.722,0.72c51.329,51.127,130.237,78.881,186.966,87.806  c7.005,1.102,13.748,1.649,20.203,1.649c23.808,0,43.687-7.445,58.208-21.965c10.668-10.668,18.072-24.072,21.41-38.761  C377.211,450.214,377.234,449.116,377.036,448.048z"/>
<path style="fill:#FF7883;" d="M231.52,404.862c-61.462-27.004-94.805-60.393-124.307-124.46L60.727,135.029  c-14.689,3.337-28.091,10.74-38.761,21.41c-18.457,18.457-25.483,45.57-20.317,78.41c8.924,56.73,36.678,135.636,87.814,186.976  l0.722,0.72c51.329,51.127,130.237,78.881,186.966,87.806c7.005,1.102,13.748,1.649,20.203,1.649  c23.808,0,43.687-7.445,58.208-21.965c10.668-10.668,18.072-24.072,21.41-38.761c0.241-1.059,0.263-2.156,0.066-3.225  L231.52,404.862z"/>
<path style="fill:#DB5E6F;" d="M312.178,496.975c-6.455,0-13.198-0.547-20.203-1.649c-56.73-8.924-135.637-36.678-186.966-87.806  l-0.722-0.72c-51.136-51.339-78.89-130.247-87.814-186.976c-4.45-28.288,0.155-52.321,13.312-70.239  c-2.739,2.106-5.355,4.388-7.82,6.852C3.509,174.896-3.517,202.009,1.649,234.849c8.924,56.73,36.678,135.636,87.814,186.976  l0.722,0.72c51.329,51.127,130.237,78.881,186.966,87.806c7.005,1.102,13.748,1.649,20.203,1.649  c23.808,0,43.687-7.445,58.208-21.965c2.722-2.722,5.228-5.624,7.512-8.678C349.455,491.681,332.215,496.975,312.178,496.975z"/>
<g>
	<path style="fill:#FFC44F;" d="M248.227,255.736c26.384-24.918,39.763-47.705,39.763-67.727c0-29.884-22.716-52.36-52.717-51.998   c-28.525,0.345-51.287,23.995-51.287,52.522v3.476c0,4.418,3.582,8,8,8h8c4.418,0,8-3.582,8-8v-3.816   c0-15.265,12.152-27.929,27.415-28.18c16.8-0.276,28.587,11.316,28.587,27.996c0,24.402-40.89,60.807-66.659,78.019   c-4.767,3.178-6.672,9.331-4.371,14.72c1.918,4.493,6.499,7.265,11.385,7.265h75.646c4.418,0,8-3.582,8-8v-8c0-4.418-3.582-8-8-8   h-40.919C242.063,261.419,245.141,258.65,248.227,255.736z"/>
	<path style="fill:#FFC44F;" d="M383.993,232.01V148.37c0-5.244-3.238-10.129-8.282-11.774c-4.829-1.574-10.27,0.146-13.319,4.209   l-72.003,96.004c-2.742,3.656-3.153,8.689-1.043,12.744c2.117,4.067,6.448,6.457,10.99,6.457h59.657v24.001c0,4.418,3.582,8,8,8h8   c4.418,0,8-3.582,8-8v-24.001h16.001c4.418,0,8-3.582,8-8v-8c0-4.418-3.582-8-8-8L383.993,232.01L383.993,232.01z M359.992,232.01   h-36.002l36.002-48.002V232.01z"/>
</g>
<path style="fill:#D9F089;" d="M437.016,74.984C388.662,26.63,324.372,0,255.988,0c-45.055,0-89.332,11.844-128.044,34.252  c-3.821,2.211-5.128,7.101-2.92,10.924l16.005,27.72c2.179,3.774,7.16,5.108,10.936,2.924  c31.44-18.199,67.411-27.818,104.023-27.818c114.696,0,208.009,93.313,208.009,208.009c0,36.463-9.636,72.426-27.868,104.005  c-2.18,3.775-0.842,8.751,2.928,10.928l27.712,16c3.777,2.181,8.752,0.841,10.928-2.928c22.44-38.868,34.301-83.131,34.301-128.005  C512,187.628,485.37,123.339,437.016,74.984z"/>
<g>
	<path style="fill:#86AD32;" d="M415.411,453.999c-2.283,0-4.55-0.972-6.132-2.858l-20.57-24.514   c-2.84-3.384-2.398-8.431,0.986-11.272c3.383-2.838,8.43-2.399,11.272,0.986l20.57,24.514   C425.808,445.949,422.098,453.999,415.411,453.999z"/>
	<path style="fill:#86AD32;" d="M445.972,423.43c-1.815,0-3.64-0.614-5.138-1.872l-24.515-20.569   c-3.385-2.84-3.826-7.886-0.986-11.271c2.841-3.384,7.886-3.827,11.272-0.986l24.514,20.57c2.438,2.046,3.44,5.439,2.505,8.481   C452.603,421.103,449.444,423.43,445.972,423.43z"/>
</g>
<g>
	<path style="fill:#D9F089;" d="M117.143,98.538c-2.283,0-4.55-0.972-6.132-2.858l-20.57-24.514   c-2.84-3.384-2.398-8.431,0.986-11.272c3.383-2.839,8.43-2.399,11.272,0.986l20.57,24.514   C127.542,90.488,123.832,98.538,117.143,98.538z"/>
	<path style="fill:#D9F089;" d="M90.51,125.164c-1.814,0-3.639-0.614-5.138-1.872l-24.514-20.57   c-3.385-2.84-3.826-7.886-0.986-11.271c2.84-3.385,7.887-3.827,11.272-0.986l24.514,20.57c2.438,2.046,3.44,5.439,2.505,8.481   C97.142,122.837,93.983,125.164,90.51,125.164z"/>
</g>
<path style="fill:#B0DB51;" d="M255.988,0v48.002c57.349,0,109.351,23.328,147.016,60.994l34.012-34.012  C388.662,26.63,324.372,0,255.988,0z"/>
<path style="fill:#9CC445;" d="M512,256.012c0-68.383-26.63-132.673-74.984-181.027l-34.012,34.012  c37.666,37.666,60.994,89.668,60.994,147.016"/>
<path style="fill:#86AD32;" d="M463.998,256.012c0,36.463-9.636,72.426-27.868,104.005c-2.18,3.775-0.842,8.751,2.928,10.928  l27.712,16c3.777,2.181,8.752,0.841,10.928-2.928c22.44-38.868,34.301-83.131,34.301-128.005"/>
<g>
</g>
<g>
</g>
<g>
</g>
<g>
</g>
<g>
</g>
<g>
</g>
<g>
</g>
<g>
</g>
<g>
</g>
<g>
</g>
<g>
</g>
<g>
</g>
<g>
</g>
<g>
</g>
<g>
</g>
</svg>
